<mxfile host="app.diagrams.net" modified="2023-04-10T05:08:37.020Z" agent="Mozilla/5.0 (Windows NT 10.0; Win64; x64) AppleWebKit/537.36 (KHTML, like Gecko) Chrome/112.0.0.0 Safari/537.36 Edg/112.0.1722.34" etag="GTsGPMA8oxfzbIMegWgR" version="21.1.5" type="device">
  <diagram id="C5RBs43oDa-KdzZeNtuy" name="Page-1">
    <mxGraphModel dx="1617" dy="788" grid="1" gridSize="10" guides="1" tooltips="1" connect="1" arrows="1" fold="1" page="1" pageScale="1" pageWidth="827" pageHeight="1169" math="0" shadow="0">
      <root>
        <mxCell id="WIyWlLk6GJQsqaUBKTNV-0" />
        <mxCell id="WIyWlLk6GJQsqaUBKTNV-1" parent="WIyWlLk6GJQsqaUBKTNV-0" />
        <mxCell id="lurMdj-Hx_lAta7AqmBO-3" value="" style="edgeStyle=orthogonalEdgeStyle;rounded=0;orthogonalLoop=1;jettySize=auto;html=1;" parent="WIyWlLk6GJQsqaUBKTNV-1" source="lurMdj-Hx_lAta7AqmBO-1" target="lurMdj-Hx_lAta7AqmBO-2" edge="1">
          <mxGeometry relative="1" as="geometry" />
        </mxCell>
        <mxCell id="lurMdj-Hx_lAta7AqmBO-1" value="Mulai" style="rounded=1;whiteSpace=wrap;html=1;" parent="WIyWlLk6GJQsqaUBKTNV-1" vertex="1">
          <mxGeometry x="40" y="40" width="120" height="60" as="geometry" />
        </mxCell>
        <mxCell id="lurMdj-Hx_lAta7AqmBO-5" value="" style="edgeStyle=orthogonalEdgeStyle;rounded=0;orthogonalLoop=1;jettySize=auto;html=1;" parent="WIyWlLk6GJQsqaUBKTNV-1" source="lurMdj-Hx_lAta7AqmBO-2" target="lurMdj-Hx_lAta7AqmBO-4" edge="1">
          <mxGeometry relative="1" as="geometry" />
        </mxCell>
        <mxCell id="lurMdj-Hx_lAta7AqmBO-2" value="Jumlah keseluruhan buku = 10" style="rounded=0;whiteSpace=wrap;html=1;" parent="WIyWlLk6GJQsqaUBKTNV-1" vertex="1">
          <mxGeometry x="40" y="160" width="120" height="60" as="geometry" />
        </mxCell>
        <mxCell id="T8joGGnPmF3t0pjObZ6Z-1" value="" style="edgeStyle=orthogonalEdgeStyle;rounded=0;orthogonalLoop=1;jettySize=auto;html=1;" parent="WIyWlLk6GJQsqaUBKTNV-1" source="lurMdj-Hx_lAta7AqmBO-4" target="T8joGGnPmF3t0pjObZ6Z-0" edge="1">
          <mxGeometry relative="1" as="geometry" />
        </mxCell>
        <mxCell id="lurMdj-Hx_lAta7AqmBO-4" value="Perintah Ibu &quot;Baca semua bukumu sampai paham&quot;" style="rounded=0;whiteSpace=wrap;html=1;" parent="WIyWlLk6GJQsqaUBKTNV-1" vertex="1">
          <mxGeometry x="40" y="300" width="120" height="60" as="geometry" />
        </mxCell>
        <mxCell id="lurMdj-Hx_lAta7AqmBO-9" value="" style="edgeStyle=orthogonalEdgeStyle;rounded=0;orthogonalLoop=1;jettySize=auto;html=1;" parent="WIyWlLk6GJQsqaUBKTNV-1" edge="1">
          <mxGeometry relative="1" as="geometry">
            <mxPoint x="100" y="920" as="targetPoint" />
            <mxPoint x="100" y="825" as="sourcePoint" />
          </mxGeometry>
        </mxCell>
        <mxCell id="JEWBV7IKXIx5QypINJ3X-3" value="" style="edgeStyle=orthogonalEdgeStyle;rounded=0;orthogonalLoop=1;jettySize=auto;html=1;" parent="WIyWlLk6GJQsqaUBKTNV-1" source="lurMdj-Hx_lAta7AqmBO-6" target="lurMdj-Hx_lAta7AqmBO-8" edge="1">
          <mxGeometry relative="1" as="geometry" />
        </mxCell>
        <mxCell id="lurMdj-Hx_lAta7AqmBO-6" value="Jumlah buku yang dibaca dan dipahami = 0" style="whiteSpace=wrap;html=1;rounded=0;" parent="WIyWlLk6GJQsqaUBKTNV-1" vertex="1">
          <mxGeometry x="40" y="570" width="120" height="60" as="geometry" />
        </mxCell>
        <mxCell id="lurMdj-Hx_lAta7AqmBO-20" value="" style="edgeStyle=orthogonalEdgeStyle;rounded=0;orthogonalLoop=1;jettySize=auto;html=1;" parent="WIyWlLk6GJQsqaUBKTNV-1" target="lurMdj-Hx_lAta7AqmBO-19" edge="1">
          <mxGeometry relative="1" as="geometry">
            <mxPoint x="100" y="1005" as="sourcePoint" />
          </mxGeometry>
        </mxCell>
        <mxCell id="FWM9KSrK8XDjhAiKEOjO-0" value="" style="edgeStyle=orthogonalEdgeStyle;rounded=0;orthogonalLoop=1;jettySize=auto;html=1;" edge="1" parent="WIyWlLk6GJQsqaUBKTNV-1" source="lurMdj-Hx_lAta7AqmBO-8" target="JEWBV7IKXIx5QypINJ3X-6">
          <mxGeometry relative="1" as="geometry" />
        </mxCell>
        <mxCell id="lurMdj-Hx_lAta7AqmBO-8" value="Jumlah buku yang dibaca == Jumlah Keseluruhan buku ?" style="rhombus;whiteSpace=wrap;html=1;rounded=0;" parent="WIyWlLk6GJQsqaUBKTNV-1" vertex="1">
          <mxGeometry x="10" y="820" width="180" height="190" as="geometry" />
        </mxCell>
        <mxCell id="DuPLm48tY4Q2uOm1pYS0-1" value="" style="edgeStyle=orthogonalEdgeStyle;rounded=0;orthogonalLoop=1;jettySize=auto;html=1;" parent="WIyWlLk6GJQsqaUBKTNV-1" source="lurMdj-Hx_lAta7AqmBO-10" target="DuPLm48tY4Q2uOm1pYS0-0" edge="1">
          <mxGeometry relative="1" as="geometry">
            <Array as="points">
              <mxPoint x="653" y="915" />
              <mxPoint x="653" y="915" />
            </Array>
          </mxGeometry>
        </mxCell>
        <mxCell id="lurMdj-Hx_lAta7AqmBO-10" value="Baca 1&amp;nbsp; buku yang belum dibaca dan belum dipahami" style="whiteSpace=wrap;html=1;rounded=0;" parent="WIyWlLk6GJQsqaUBKTNV-1" vertex="1">
          <mxGeometry x="450" y="885" width="120" height="60" as="geometry" />
        </mxCell>
        <mxCell id="JEWBV7IKXIx5QypINJ3X-9" style="edgeStyle=orthogonalEdgeStyle;rounded=0;orthogonalLoop=1;jettySize=auto;html=1;exitX=0.5;exitY=0;exitDx=0;exitDy=0;entryX=1;entryY=0.5;entryDx=0;entryDy=0;" parent="WIyWlLk6GJQsqaUBKTNV-1" source="lurMdj-Hx_lAta7AqmBO-15" target="JEWBV7IKXIx5QypINJ3X-8" edge="1">
          <mxGeometry relative="1" as="geometry" />
        </mxCell>
        <mxCell id="lurMdj-Hx_lAta7AqmBO-15" value="Jumlah buku yang dibaca dan dipahami = Jumlah buku yang dibaca dan dipahami&amp;nbsp;+ 1" style="whiteSpace=wrap;html=1;rounded=0;" parent="WIyWlLk6GJQsqaUBKTNV-1" vertex="1">
          <mxGeometry x="820" y="875" width="130" height="80" as="geometry" />
        </mxCell>
        <mxCell id="lurMdj-Hx_lAta7AqmBO-23" value="" style="edgeStyle=orthogonalEdgeStyle;rounded=0;orthogonalLoop=1;jettySize=auto;html=1;" parent="WIyWlLk6GJQsqaUBKTNV-1" source="lurMdj-Hx_lAta7AqmBO-19" target="lurMdj-Hx_lAta7AqmBO-22" edge="1">
          <mxGeometry relative="1" as="geometry" />
        </mxCell>
        <mxCell id="lurMdj-Hx_lAta7AqmBO-19" value="Lapor ke ibu jika semua buku sudah dibaca dan dipahami" style="whiteSpace=wrap;html=1;rounded=0;" parent="WIyWlLk6GJQsqaUBKTNV-1" vertex="1">
          <mxGeometry x="40" y="1060" width="120" height="60" as="geometry" />
        </mxCell>
        <mxCell id="lurMdj-Hx_lAta7AqmBO-21" value="ya" style="text;html=1;align=center;verticalAlign=middle;resizable=0;points=[];autosize=1;strokeColor=none;fillColor=none;" parent="WIyWlLk6GJQsqaUBKTNV-1" vertex="1">
          <mxGeometry x="100" y="1015" width="40" height="30" as="geometry" />
        </mxCell>
        <mxCell id="lurMdj-Hx_lAta7AqmBO-22" value="Selesai" style="rounded=1;whiteSpace=wrap;html=1;" parent="WIyWlLk6GJQsqaUBKTNV-1" vertex="1">
          <mxGeometry x="40" y="1200" width="120" height="60" as="geometry" />
        </mxCell>
        <mxCell id="DuPLm48tY4Q2uOm1pYS0-2" value="Ya" style="edgeStyle=orthogonalEdgeStyle;rounded=0;orthogonalLoop=1;jettySize=auto;html=1;" parent="WIyWlLk6GJQsqaUBKTNV-1" source="DuPLm48tY4Q2uOm1pYS0-0" edge="1">
          <mxGeometry relative="1" as="geometry">
            <mxPoint x="820" y="915" as="targetPoint" />
          </mxGeometry>
        </mxCell>
        <mxCell id="DuPLm48tY4Q2uOm1pYS0-3" value="Tidak" style="edgeStyle=orthogonalEdgeStyle;rounded=0;orthogonalLoop=1;jettySize=auto;html=1;exitX=0.5;exitY=1;exitDx=0;exitDy=0;entryX=0.5;entryY=1;entryDx=0;entryDy=0;" parent="WIyWlLk6GJQsqaUBKTNV-1" source="DuPLm48tY4Q2uOm1pYS0-0" target="lurMdj-Hx_lAta7AqmBO-10" edge="1">
          <mxGeometry relative="1" as="geometry" />
        </mxCell>
        <mxCell id="DuPLm48tY4Q2uOm1pYS0-0" value="Paham?" style="rhombus;whiteSpace=wrap;html=1;rounded=0;" parent="WIyWlLk6GJQsqaUBKTNV-1" vertex="1">
          <mxGeometry x="670" y="870" width="90" height="90" as="geometry" />
        </mxCell>
        <mxCell id="JEWBV7IKXIx5QypINJ3X-2" value="" style="edgeStyle=orthogonalEdgeStyle;rounded=0;orthogonalLoop=1;jettySize=auto;html=1;" parent="WIyWlLk6GJQsqaUBKTNV-1" source="T8joGGnPmF3t0pjObZ6Z-0" target="lurMdj-Hx_lAta7AqmBO-6" edge="1">
          <mxGeometry relative="1" as="geometry" />
        </mxCell>
        <mxCell id="T8joGGnPmF3t0pjObZ6Z-0" value="Total jumlah baca = 0" style="whiteSpace=wrap;html=1;rounded=0;" parent="WIyWlLk6GJQsqaUBKTNV-1" vertex="1">
          <mxGeometry x="40" y="440" width="120" height="60" as="geometry" />
        </mxCell>
        <mxCell id="JEWBV7IKXIx5QypINJ3X-7" value="" style="edgeStyle=orthogonalEdgeStyle;rounded=0;orthogonalLoop=1;jettySize=auto;html=1;" parent="WIyWlLk6GJQsqaUBKTNV-1" source="JEWBV7IKXIx5QypINJ3X-6" target="lurMdj-Hx_lAta7AqmBO-10" edge="1">
          <mxGeometry relative="1" as="geometry" />
        </mxCell>
        <mxCell id="JEWBV7IKXIx5QypINJ3X-6" value="Total jumlah baca = total jumlah baca + 1" style="whiteSpace=wrap;html=1;rounded=0;" parent="WIyWlLk6GJQsqaUBKTNV-1" vertex="1">
          <mxGeometry x="260" y="885" width="120" height="60" as="geometry" />
        </mxCell>
        <mxCell id="JEWBV7IKXIx5QypINJ3X-10" value="Ya" style="edgeStyle=orthogonalEdgeStyle;rounded=0;orthogonalLoop=1;jettySize=auto;html=1;exitX=0;exitY=0.5;exitDx=0;exitDy=0;" parent="WIyWlLk6GJQsqaUBKTNV-1" source="JEWBV7IKXIx5QypINJ3X-8" edge="1">
          <mxGeometry relative="1" as="geometry">
            <mxPoint x="100" y="730" as="targetPoint" />
          </mxGeometry>
        </mxCell>
        <mxCell id="FWM9KSrK8XDjhAiKEOjO-1" style="edgeStyle=orthogonalEdgeStyle;rounded=0;orthogonalLoop=1;jettySize=auto;html=1;exitX=0.5;exitY=0;exitDx=0;exitDy=0;entryX=1;entryY=0.5;entryDx=0;entryDy=0;" edge="1" parent="WIyWlLk6GJQsqaUBKTNV-1" source="JEWBV7IKXIx5QypINJ3X-8" target="JEWBV7IKXIx5QypINJ3X-13">
          <mxGeometry relative="1" as="geometry">
            <Array as="points">
              <mxPoint x="375" y="630" />
              <mxPoint x="1040" y="630" />
              <mxPoint x="1040" y="1230" />
            </Array>
          </mxGeometry>
        </mxCell>
        <mxCell id="FWM9KSrK8XDjhAiKEOjO-2" value="Tidak" style="edgeLabel;html=1;align=center;verticalAlign=middle;resizable=0;points=[];" vertex="1" connectable="0" parent="FWM9KSrK8XDjhAiKEOjO-1">
          <mxGeometry x="-0.0024" y="-1" relative="1" as="geometry">
            <mxPoint as="offset" />
          </mxGeometry>
        </mxCell>
        <mxCell id="JEWBV7IKXIx5QypINJ3X-8" value="jumlah baca &amp;lt; jumlah buku * 2?" style="rhombus;whiteSpace=wrap;html=1;" parent="WIyWlLk6GJQsqaUBKTNV-1" vertex="1">
          <mxGeometry x="320" y="650" width="110" height="160" as="geometry" />
        </mxCell>
        <mxCell id="FWM9KSrK8XDjhAiKEOjO-3" value="" style="edgeStyle=orthogonalEdgeStyle;rounded=0;orthogonalLoop=1;jettySize=auto;html=1;" edge="1" parent="WIyWlLk6GJQsqaUBKTNV-1" source="JEWBV7IKXIx5QypINJ3X-13" target="lurMdj-Hx_lAta7AqmBO-22">
          <mxGeometry relative="1" as="geometry" />
        </mxCell>
        <mxCell id="JEWBV7IKXIx5QypINJ3X-13" value="Lapor ke ibu jika tidak semua buku bisa dipahami" style="whiteSpace=wrap;html=1;rounded=0;" parent="WIyWlLk6GJQsqaUBKTNV-1" vertex="1">
          <mxGeometry x="520" y="1200" width="120" height="60" as="geometry" />
        </mxCell>
      </root>
    </mxGraphModel>
  </diagram>
</mxfile>
